<svg width="403" height="277" viewBox="0 0 403 277" fill="none" xmlns="http://www.w3.org/2000/svg">
<path d="M372.386 0.205811H24.2898C21.7488 0.205811 19.3118 1.21636 17.515 3.01512C15.7182 4.81388 14.7087 7.25351 14.7087 9.79735V203.961C14.7087 206.505 15.7182 208.945 17.515 210.744C19.3118 212.542 21.7488 213.553 24.2898 213.553H372.386C374.927 213.553 377.364 212.542 379.161 210.744C380.957 208.945 381.967 206.505 381.967 203.961V9.79735C381.967 7.25351 380.957 4.81388 379.161 3.01512C377.364 1.21636 374.927 0.205811 372.386 0.205811Z" fill="#3F3D56"/>
<path d="M369.122 17.1567H27.5541V210.046H369.122V17.1567Z" fill="white"/>
<path d="M198.046 11.896C199.981 11.896 201.549 10.3259 201.549 8.38896C201.549 6.45206 199.981 4.8819 198.046 4.8819C196.111 4.8819 194.543 6.45206 194.543 8.38896C194.543 10.3259 196.111 11.896 198.046 11.896Z" fill="white"/>
<path d="M271.439 210.046H27.5541V17.1566L271.439 210.046Z" fill="#F2F2F2"/>
<path d="M391.557 206.539H358.222V204.134C358.222 204.008 358.172 203.887 358.083 203.797C357.994 203.708 357.873 203.658 357.746 203.658H346.317C346.255 203.658 346.193 203.67 346.135 203.694C346.077 203.718 346.025 203.753 345.98 203.797C345.936 203.842 345.901 203.894 345.877 203.952C345.853 204.01 345.841 204.072 345.841 204.134V206.539H338.698V204.134C338.698 204.072 338.686 204.01 338.662 203.952C338.638 203.894 338.603 203.842 338.558 203.797C338.514 203.753 338.462 203.718 338.404 203.694C338.346 203.67 338.284 203.658 338.222 203.658H326.793C326.73 203.658 326.668 203.67 326.61 203.694C326.553 203.718 326.5 203.753 326.456 203.797C326.412 203.842 326.377 203.894 326.353 203.952C326.329 204.01 326.316 204.072 326.316 204.134V206.539H319.173V204.134C319.173 204.072 319.161 204.01 319.137 203.952C319.113 203.894 319.078 203.842 319.034 203.797C318.99 203.753 318.937 203.718 318.879 203.694C318.822 203.67 318.76 203.658 318.697 203.658H307.268C307.205 203.658 307.143 203.67 307.086 203.694C307.028 203.718 306.975 203.753 306.931 203.797C306.887 203.842 306.852 203.894 306.828 203.952C306.804 204.01 306.792 204.072 306.792 204.134V206.539H299.649V204.134C299.649 204.072 299.636 204.01 299.612 203.952C299.588 203.894 299.553 203.842 299.509 203.797C299.465 203.753 299.412 203.718 299.355 203.694C299.297 203.67 299.235 203.658 299.172 203.658H287.743C287.681 203.658 287.619 203.67 287.561 203.694C287.503 203.718 287.451 203.753 287.407 203.797C287.362 203.842 287.327 203.894 287.303 203.952C287.279 204.01 287.267 204.072 287.267 204.134V206.539H280.124V204.134C280.124 204.072 280.112 204.01 280.088 203.952C280.064 203.894 280.029 203.842 279.984 203.797C279.94 203.753 279.888 203.718 279.83 203.694C279.772 203.67 279.71 203.658 279.648 203.658H268.219C268.156 203.658 268.094 203.67 268.036 203.694C267.979 203.718 267.926 203.753 267.882 203.797C267.838 203.842 267.803 203.894 267.779 203.952C267.755 204.01 267.742 204.072 267.742 204.134V206.539H260.599V204.134C260.599 204.072 260.587 204.01 260.563 203.952C260.539 203.894 260.504 203.842 260.46 203.797C260.416 203.753 260.363 203.718 260.305 203.694C260.247 203.67 260.186 203.658 260.123 203.658H248.694C248.631 203.658 248.57 203.67 248.512 203.694C248.454 203.718 248.401 203.753 248.357 203.797C248.313 203.842 248.278 203.894 248.254 203.952C248.23 204.01 248.218 204.072 248.218 204.134V206.539H241.075V204.134C241.075 204.072 241.062 204.01 241.038 203.952C241.014 203.894 240.979 203.842 240.935 203.797C240.891 203.753 240.838 203.718 240.781 203.694C240.723 203.67 240.661 203.658 240.598 203.658H151.071C151.008 203.658 150.946 203.67 150.889 203.694C150.831 203.718 150.778 203.753 150.734 203.797C150.69 203.842 150.655 203.894 150.631 203.952C150.607 204.01 150.595 204.072 150.595 204.134V206.539H143.451V204.134C143.451 204.072 143.439 204.01 143.415 203.952C143.391 203.894 143.356 203.842 143.312 203.797C143.268 203.753 143.215 203.718 143.157 203.694C143.1 203.67 143.038 203.658 142.975 203.658H131.546C131.484 203.658 131.422 203.67 131.364 203.694C131.306 203.718 131.254 203.753 131.209 203.797C131.165 203.842 131.13 203.894 131.106 203.952C131.082 204.01 131.07 204.072 131.07 204.134V206.539H123.927V204.134C123.927 204.072 123.914 204.01 123.89 203.952C123.867 203.894 123.831 203.842 123.787 203.797C123.743 203.753 123.691 203.718 123.633 203.694C123.575 203.67 123.513 203.658 123.451 203.658H112.021C111.959 203.658 111.897 203.67 111.839 203.694C111.781 203.718 111.729 203.753 111.685 203.797C111.64 203.842 111.605 203.894 111.581 203.952C111.558 204.01 111.545 204.072 111.545 204.134V206.539H104.402V204.134C104.402 204.072 104.39 204.01 104.366 203.952C104.342 203.894 104.307 203.842 104.263 203.797C104.218 203.753 104.166 203.718 104.108 203.694C104.05 203.67 103.988 203.658 103.926 203.658H92.4968C92.4342 203.658 92.3723 203.67 92.3146 203.694C92.2568 203.718 92.2043 203.753 92.16 203.797C92.1158 203.842 92.0808 203.894 92.0568 203.952C92.0329 204.01 92.0206 204.072 92.0206 204.134V206.539H84.8775V204.134C84.8775 204.072 84.8651 204.01 84.8412 203.952C84.8173 203.894 84.7822 203.842 84.738 203.797C84.6937 203.753 84.6413 203.718 84.5835 203.694C84.5257 203.67 84.4638 203.658 84.4012 203.658H72.9722C72.9096 203.658 72.8477 203.67 72.7899 203.694C72.7321 203.718 72.6796 203.753 72.6354 203.797C72.5912 203.842 72.5561 203.894 72.5322 203.952C72.5083 204.01 72.4959 204.072 72.4959 204.134V206.539H65.3527V204.134C65.3527 204.072 65.3405 204.01 65.3165 203.952C65.2926 203.894 65.2575 203.842 65.2133 203.797C65.1691 203.753 65.1166 203.718 65.0588 203.694C65.001 203.67 64.9391 203.658 64.8766 203.658H53.4475C53.3212 203.658 53.2001 203.708 53.1108 203.797C53.0215 203.887 52.9713 204.008 52.9713 204.134V206.539H45.8282V204.134C45.8282 204.072 45.8158 204.01 45.7919 203.952C45.768 203.894 45.7329 203.842 45.6887 203.797C45.6445 203.753 45.592 203.718 45.5342 203.694C45.4764 203.67 45.4145 203.658 45.3519 203.658H33.9229C33.7966 203.658 33.6754 203.708 33.5861 203.797C33.4968 203.887 33.4466 204.008 33.4466 204.134V206.539H11.5409C10.04 206.539 8.55384 206.835 7.16721 207.41C5.78057 207.985 4.52065 208.828 3.45936 209.89C2.39808 210.952 1.55621 212.214 0.981851 213.602C0.407488 214.99 0.111877 216.478 0.111877 217.98V223.154C0.111881 226.188 1.316 229.099 3.45936 231.244C5.60273 233.39 8.50975 234.595 11.5409 234.595H391.557C394.588 234.595 397.495 233.39 399.639 231.244C401.782 229.099 402.986 226.188 402.986 223.154V217.98C402.986 216.478 402.691 214.99 402.116 213.602C401.542 212.214 400.7 210.952 399.639 209.89C398.578 208.828 397.318 207.985 395.931 207.41C394.544 206.835 393.058 206.539 391.557 206.539Z" fill="#3F3D56"/>
<g clip-path="url(#clip0)">
<path d="M300.86 37.8379V190.986C300.86 191.919 300.678 192.843 300.325 193.705C299.972 194.567 299.454 195.35 298.8 196.01C298.147 196.669 297.371 197.192 296.518 197.549C295.664 197.906 294.749 198.089 293.825 198.089H48.9142C47.9903 198.089 47.0753 197.906 46.2216 197.549C45.3678 197.192 44.5921 196.669 43.9388 196.01C43.2855 195.35 42.7673 194.567 42.4139 193.705C42.0606 192.843 41.8789 191.919 41.8794 190.986V37.8379C41.8794 35.9541 42.6206 34.1475 43.9399 32.8155C45.2591 31.4834 47.0485 30.7351 48.9142 30.7351H293.807C294.732 30.7327 295.649 30.9147 296.504 31.2705C297.36 31.6264 298.138 32.1492 298.793 32.809C299.448 33.4688 299.968 34.2526 300.322 35.1155C300.677 35.9785 300.86 36.9036 300.86 37.8379Z" fill="#4C4C78"/>
<path d="M96.6041 34.2883V198.089H48.9142C47.9903 198.089 47.0753 197.906 46.2216 197.549C45.3678 197.192 44.5921 196.669 43.9388 196.01C43.2855 195.35 42.7673 194.567 42.4139 193.705C42.0606 192.843 41.8789 191.919 41.8794 190.986V37.8379L42.1354 36.8731L42.8205 34.2883H96.6041Z" fill="white"/>
<path d="M102.723 36.8731V51.6174H41.8794V37.8379L42.1354 36.8731H102.723Z" fill="#4C4C78"/>
<path d="M87.5108 43.3643H50.9736V46.7609H87.5108V43.3643Z" fill="#6C63FF"/>
<path opacity="0.5" d="M87.5108 59.9289H50.9736V63.3256H87.5108V59.9289Z" fill="#6C63FF"/>
<path opacity="0.5" d="M87.5108 71.6406H50.9736V75.0373H87.5108V71.6406Z" fill="#6C63FF"/>
<path opacity="0.5" d="M87.5108 83.3524H50.9736V86.749H87.5108V83.3524Z" fill="#6C63FF"/>
<path opacity="0.5" d="M87.5108 95.0605H50.9736V98.4571H87.5108V95.0605Z" fill="#6C63FF"/>
<path opacity="0.5" d="M87.5108 106.772H50.9736V110.169H87.5108V106.772Z" fill="#6C63FF"/>
<path opacity="0.5" d="M87.5108 118.484H50.9736V121.881H87.5108V118.484Z" fill="#6C63FF"/>
<path opacity="0.5" d="M288.42 55.8551H126.518V56.4012H288.42V55.8551Z" fill="#DCE0ED"/>
<path opacity="0.5" d="M288.42 68.5352H126.518V69.0813H288.42V68.5352Z" fill="#DCE0ED"/>
<path opacity="0.5" d="M288.42 81.219H126.518V81.7651H288.42V81.219Z" fill="#DCE0ED"/>
<path opacity="0.5" d="M288.42 93.8991H126.518V94.4452H288.42V93.8991Z" fill="#DCE0ED"/>
<path opacity="0.5" d="M288.42 106.579H126.518V107.125H288.42V106.579Z" fill="#DCE0ED"/>
<path opacity="0.1" d="M101.876 203.899C100.362 204.263 91.9892 206.116 88.8161 205.65C85.3221 205.133 78.5253 204.791 78.5253 204.791C78.5253 204.791 74.1983 205.024 72.8714 204.427C72.8714 204.263 72.8714 204.172 72.8714 204.172L75.3377 201.19C75.3377 201.19 99.2043 199.37 100.993 201.19C101.462 201.62 101.714 202.629 101.876 203.899Z" fill="black"/>
<path opacity="0.1" d="M94.8234 195.497C94.8234 195.497 99.1142 194.062 99.4279 197.39C99.4279 197.39 98.6166 195.107 94.8234 195.497Z" fill="black"/>
<g opacity="0.5">
<path opacity="0.5" d="M164.624 135.533H140.826V140.63H164.624V135.533Z" fill="#DCE0ED"/>
<path opacity="0.5" d="M219.269 135.533H195.471V140.63H219.269V135.533Z" fill="#DCE0ED"/>
<path opacity="0.5" d="M273.914 135.533H250.116V140.63H273.914V135.533Z" fill="#DCE0ED"/>
</g>
<path d="M139.142 171.127C139.142 163.685 145.138 157.97 152.512 157.97H152.617V154.584H152.512C143.288 154.584 135.788 161.818 135.788 171.127C135.788 173.535 136.299 175.915 137.288 178.107C138.276 180.299 139.719 182.251 141.518 183.832L143.894 181.433C142.406 180.169 141.209 178.591 140.388 176.811C139.567 175.031 139.142 173.09 139.142 171.127Z" fill="#6C63FF"/>
<path opacity="0.5" d="M152.952 154.588V157.973C155.099 157.988 157.211 158.524 159.11 159.538C161.008 160.551 162.637 162.011 163.858 163.794C165.079 165.578 165.856 167.632 166.125 169.783C166.393 171.934 166.144 174.119 165.398 176.152C164.653 178.186 163.434 180.008 161.843 181.464C160.253 182.921 158.338 183.969 156.262 184.521C154.185 185.072 152.007 185.11 149.913 184.631C147.818 184.153 145.869 183.172 144.23 181.772L141.846 184.171C143.877 185.964 146.307 187.234 148.93 187.872C151.552 188.511 154.289 188.499 156.906 187.838C159.523 187.177 161.943 185.887 163.958 184.076C165.974 182.266 167.526 179.991 168.482 177.443C169.437 174.896 169.768 172.154 169.446 169.449C169.124 166.745 168.158 164.16 166.632 161.914C165.105 159.669 163.063 157.829 160.68 156.553C158.296 155.278 155.642 154.603 152.945 154.588H152.952Z" fill="#6C63FF"/>
<path opacity="0.5" d="M262.567 157.799C269.937 157.799 275.598 163.853 275.598 171.298C275.598 171.331 275.598 171.367 275.598 171.403H278.952C278.952 171.367 278.952 171.331 278.952 171.298C278.952 161.989 271.787 154.413 262.567 154.413C260.182 154.412 257.824 154.928 255.653 155.926C253.482 156.924 251.549 158.381 249.983 160.198L252.359 162.597C253.611 161.094 255.174 159.886 256.937 159.057C258.701 158.228 260.622 157.799 262.567 157.799Z" fill="#6C63FF"/>
<path d="M278.948 171.742H275.595C275.58 173.91 275.049 176.043 274.045 177.959C273.042 179.876 271.596 181.52 269.829 182.753C268.063 183.986 266.028 184.771 263.898 185.042C261.767 185.313 259.603 185.061 257.59 184.309C255.576 183.556 253.771 182.325 252.328 180.719C250.886 179.113 249.847 177.18 249.301 175.084C248.755 172.987 248.718 170.788 249.191 168.673C249.665 166.559 250.637 164.591 252.024 162.935L249.658 160.536C247.883 162.587 246.625 165.041 245.992 167.688C245.36 170.336 245.372 173.099 246.026 175.741C246.681 178.384 247.959 180.827 249.752 182.862C251.545 184.897 253.799 186.464 256.322 187.429C258.844 188.394 261.561 188.728 264.239 188.402C266.917 188.077 269.478 187.102 271.702 185.561C273.926 184.02 275.748 181.958 277.012 179.551C278.275 177.145 278.944 174.466 278.959 171.742H278.948Z" fill="#6C63FF"/>
<path opacity="0.5" d="M213.961 155.578L213.294 158.949C218.202 160.948 221.339 165.804 221.339 171.465C221.339 173.898 220.689 176.286 219.456 178.376C218.223 180.466 216.453 182.18 214.334 183.338C212.215 184.496 209.825 185.054 207.418 184.953C205.01 184.852 202.675 184.096 200.658 182.765C198.641 181.434 197.018 179.577 195.961 177.391C194.904 175.205 194.451 172.771 194.652 170.347C194.852 167.922 195.698 165.598 197.1 163.619C198.501 161.64 200.407 160.081 202.614 159.105L201.128 156.066C198.388 157.311 196.031 159.279 194.305 161.764C192.579 164.248 191.549 167.155 191.322 170.181C191.095 173.207 191.68 176.238 193.015 178.956C194.351 181.674 196.387 183.979 198.911 185.627C201.434 187.275 204.351 188.206 207.354 188.321C210.357 188.437 213.335 187.733 215.975 186.283C218.616 184.834 220.82 182.693 222.356 180.085C223.893 177.477 224.705 174.499 224.706 171.465C224.706 164.159 220.423 157.926 213.961 155.578Z" fill="#6C63FF"/>
<path d="M208.405 157.773C210.006 157.772 211.591 158.105 213.06 158.749L213.727 155.381C212.029 154.721 210.224 154.384 208.405 154.387C206.042 154.387 203.707 154.895 201.554 155.876L203.054 158.909C204.74 158.158 206.562 157.771 208.405 157.773Z" fill="#6C63FF"/>
</g>
<g clip-path="url(#clip1)">
<path d="M308.786 80.3855C308.786 80.3855 310.814 85.2047 306.25 87.4874C301.687 89.7702 318.42 94.0821 320.195 88.502C320.195 88.502 315.631 86.7265 317.659 81.4001L308.786 80.3855Z" fill="#FFB9B9"/>
<path d="M314.237 179.939L313.983 185.266L318.293 186.027V180.7L314.237 179.939Z" fill="#FFB9B9"/>
<path d="M298.01 179.939L298.264 185.266L293.954 186.027V180.7L298.01 179.939Z" fill="#FFB9B9"/>
<path d="M313.73 83.3024C317.65 83.3024 320.829 80.1227 320.829 76.2005C320.829 72.2782 317.65 69.0985 313.73 69.0985C309.809 69.0985 306.631 72.2782 306.631 76.2005C306.631 80.1227 309.809 83.3024 313.73 83.3024Z" fill="#FFB9B9"/>
<path d="M323.618 127.69L323.364 129.719L324.632 134.538L326.406 130.226L323.618 127.69Z" fill="#FFB9B9"/>
<path d="M295.475 128.45L293.954 146.459C293.954 146.459 292.179 149.756 293.193 152.546C293.193 152.546 291.672 156.351 292.179 157.619C292.686 158.887 292.939 160.156 292.432 160.663C291.925 161.17 291.672 175.374 292.432 176.642C293.193 177.91 293.7 180.954 293.7 180.954C293.7 180.954 298.01 181.969 299.024 179.179C300.039 176.389 299.531 176.135 300.546 175.374C301.56 174.613 301.56 163.96 301.56 163.96C301.56 163.96 300.292 162.692 301.053 162.185C301.813 161.677 302.32 162.185 301.56 160.916C300.799 159.648 299.531 159.648 300.799 159.141C301.506 158.867 302.185 158.527 302.827 158.126L310.18 138.85C310.18 138.85 312.969 160.409 313.476 161.424C313.983 162.438 314.744 161.17 313.983 162.438C313.223 163.707 312.969 162.946 313.223 163.707C313.476 164.467 311.701 175.374 312.715 177.657C313.307 178.976 313.815 180.332 314.237 181.715C314.237 181.715 318.293 183.491 318.8 182.222C319.307 180.954 319.054 178.671 319.815 178.418C320.575 178.164 321.336 177.657 321.336 175.628C321.336 173.599 322.857 163.707 322.857 163.707C322.857 163.707 321.082 162.946 321.589 161.677C322.096 160.409 322.096 160.663 321.843 159.648C321.589 158.634 321.082 158.38 321.589 157.619C322.096 156.858 322.096 154.575 322.096 154.575L325.139 134.538L322.789 127.69L295.475 128.45Z" fill="#2F2E41"/>
<path d="M314.49 183.998C314.49 183.998 313.73 183.237 313.476 183.998C313.223 184.759 313.223 191.861 313.223 191.861C313.223 191.861 315.251 193.383 315.251 194.143C315.251 194.904 316.772 197.441 320.322 196.933C320.357 196.928 320.392 196.923 320.427 196.918C320.941 196.834 321.428 196.632 321.851 196.328C322.273 196.024 322.619 195.625 322.861 195.164C323.104 194.703 323.235 194.192 323.246 193.672C323.256 193.151 323.146 192.635 322.923 192.164L319.307 184.505C319.307 184.505 316.772 181.969 314.49 183.998Z" fill="#2F2E41"/>
<path d="M297.757 183.998C297.757 183.998 298.517 183.237 298.771 183.998C299.024 184.759 299.024 191.861 299.024 191.861C299.024 191.861 296.996 193.383 296.996 194.143C296.996 194.904 295.475 197.441 291.925 196.933C291.89 196.928 291.855 196.923 291.82 196.918C291.306 196.834 290.819 196.632 290.396 196.328C289.974 196.024 289.628 195.625 289.385 195.164C289.143 194.703 289.012 194.192 289.001 193.672C288.99 193.151 289.101 192.635 289.324 192.164L292.939 184.505C292.939 184.505 295.475 181.969 297.757 183.998Z" fill="#2F2E41"/>
<path d="M308.319 68.5079L307.051 67.9999C307.051 67.9999 309.703 65.079 313.392 65.333L312.355 64.19C312.355 64.19 314.891 63.174 317.198 65.8409C318.41 67.2429 319.813 68.8908 320.687 70.7472H322.045L321.478 71.996L323.463 73.2448L321.426 73.0204C321.619 74.0986 321.553 75.2071 321.233 76.2547L321.288 77.2417C321.288 77.2417 318.927 73.5878 318.927 73.0798V74.3497C318.927 74.3497 317.659 73.2068 317.659 72.4448L316.967 73.3338L316.621 71.9368L312.355 73.3338L313.047 72.1908L310.394 72.5718L311.432 71.1748C311.432 71.1748 308.434 72.8258 308.319 74.2227C308.204 75.6197 306.705 77.3977 306.705 77.3977L306.013 76.1277C306.013 76.1277 304.975 70.4128 308.319 68.5079Z" fill="#2F2E41"/>
<path d="M324.632 91.9261H327.457C327.664 91.926 327.866 91.9966 328.028 92.1263C328.19 92.2559 328.303 92.4369 328.349 92.6395C328.785 94.5704 329.908 100.044 329.703 104.355C329.449 109.681 329.956 113.486 329.703 114.247C329.449 115.007 329.703 115.261 329.703 116.022C329.703 116.783 330.463 116.276 329.703 117.29C328.942 118.305 328.942 118.051 328.942 118.812C328.942 119.573 326.407 131.24 326.407 131.24C326.407 131.24 324.664 128.375 322.746 128.92L323.111 118.558L323.618 114.247L322.857 106.637L324.632 91.9261Z" fill="#3F3D56"/>
<path d="M312.335 89.2629C312.335 89.2629 308.025 89.1062 306.631 87.2823C306.631 87.2823 297.63 90.2775 296.616 92.8139C295.602 95.3503 300.165 106.764 300.165 106.764C300.165 106.764 292.306 130.099 296.109 130.099C299.912 130.099 308.532 133.143 313.603 131.367C316.745 130.277 319.966 129.429 323.237 128.831C323.237 128.831 323.744 121.983 323.237 120.714C322.73 119.446 321.463 120.207 322.223 118.432C322.984 116.656 322.73 116.402 322.477 115.642C322.223 114.881 322.984 113.866 322.984 112.852C322.984 111.837 322.73 109.554 322.73 109.554C322.73 109.554 329.576 93.5748 328.055 92.053C326.533 90.5311 318.79 87.5988 318.79 87.5988C318.79 87.5988 316.645 90.2775 312.335 89.2629Z" fill="#3F3D56"/>
<path d="M292.432 130.226C292.432 130.226 290.151 142.147 293.954 141.132C297.757 140.118 295.982 130.226 295.982 130.226H292.432Z" fill="#FFB9B9"/>
<path d="M298.264 91.9261L297.363 92.3765C297.013 92.5519 296.708 92.806 296.472 93.1189C296.236 93.4319 296.075 93.7953 296.003 94.1806L292.432 113.232C292.432 113.232 291.418 115.515 291.418 115.768C291.418 116.022 291.925 116.022 291.418 116.783C290.911 117.544 290.151 117.29 290.658 117.798C290.947 118.061 291.128 118.423 291.165 118.812L291.672 131.24C291.672 131.24 295.982 129.972 297.25 131.24C297.25 131.24 295.982 127.436 296.743 126.168C297.503 124.899 297.503 123.124 297.503 123.124C297.503 123.124 296.996 123.124 298.264 121.856C299.531 120.588 299.785 120.08 299.531 119.827C299.278 119.573 299.024 117.29 299.024 117.037C299.024 116.783 301.56 99.789 301.56 99.789L298.264 91.9261Z" fill="#3F3D56"/>
</g>
<defs>
<clipPath id="clip0">
<rect width="259" height="166" fill="white" transform="translate(42 34)"/>
</clipPath>
<clipPath id="clip1">
<rect width="41" height="133" fill="white" transform="translate(289 64)"/>
</clipPath>
</defs>
</svg>
