<svg width="153" height="65" viewBox="0 0 153 65" fill="none" xmlns="http://www.w3.org/2000/svg">
<path d="M71.6266 24.7541C71.3425 26.2148 70.8556 27.29 70.1659 27.9798C69.4761 28.6696 68.5428 29.1159 67.3662 29.3188C63.2275 40.5176 55.1327 46.117 43.0819 46.117C37.7665 46.117 33.6684 44.8794 30.7875 42.4043C27.9473 39.8887 26.5271 36.3789 26.5271 31.875C26.5271 28.4667 27.3184 24.9367 28.9008 21.2849C30.4832 17.5925 32.5729 14.2248 35.1697 11.1816C37.8071 8.13849 41.0328 5.64311 44.8469 3.6955C48.661 1.70731 52.3939 0.713214 56.0457 0.713214C59.6974 0.713214 62.5174 1.36242 64.5056 2.66082C66.4938 3.91866 67.4879 5.60253 67.4879 7.71245C67.4879 9.78179 66.4938 11.6685 64.5056 13.3727C62.5174 15.0363 60.3061 15.8681 57.8715 15.8681C56.9789 15.8681 56.2485 15.6855 55.6805 15.3203C55.1124 14.9146 54.8284 14.4074 54.8284 13.7987C54.8284 13.1901 55.0719 12.5409 55.5588 11.8511C56.0051 12.0134 56.5123 12.0946 57.0803 12.0946C58.6628 12.0946 60.1235 11.5468 61.4625 10.4513C62.8014 9.35575 63.4709 8.03705 63.4709 6.49519C63.4709 4.14182 61.9291 2.96514 58.8454 2.96514C55.8022 2.96514 52.7591 3.89837 49.7159 5.76484C46.6728 7.59072 44.0151 9.94409 41.7429 12.8249C39.4707 15.6652 37.6042 18.9112 36.1435 22.563C34.7233 26.2148 34.0133 29.7854 34.0133 33.2749C34.0133 36.7644 34.9059 39.3409 36.6912 41.0045C38.4766 42.6681 40.8502 43.4999 43.8122 43.4999C48.0726 43.4999 52.0896 42.2014 55.8631 39.6046C59.6366 36.9672 61.8479 33.5995 62.4971 29.5014C55.2342 29.5014 50.8723 29.6028 49.4116 29.8057C49.6145 29.4405 49.8579 28.9739 50.142 28.4058C50.4666 27.8378 51.0143 27.0871 51.7853 26.1539C52.5968 25.2207 53.2663 24.7541 53.7937 24.7541H71.6266ZM127.27 1.32184H131.043C129.217 2.74198 126.458 7.12411 122.766 14.4682C117.288 25.5047 114.549 33.4372 114.549 38.2656C114.549 40.4973 115.259 41.6131 116.679 41.6131C117.329 41.6131 118.12 41.3494 119.053 40.8219H119.114C119.236 40.8219 119.297 40.9233 119.297 41.1262C119.297 41.8971 118.262 42.6275 116.192 43.3173C114.164 44.007 112.5 44.3519 111.202 44.3519C108.483 44.3519 107.124 42.8709 107.124 39.9089C107.124 34.7559 111.263 24.3483 119.54 8.68626C117.917 10.2281 116.821 11.3237 116.253 11.9729C112.358 16.3144 106.556 23.4962 98.8466 33.5183C97.2236 35.5877 96.1077 36.8861 95.4991 37.4136C94.8905 37.941 94.079 38.2048 93.0646 38.2048C92.0908 38.2048 90.9547 37.9005 89.6563 37.2918C90.6706 35.9934 91.1778 32.0576 91.1778 25.4844C91.1778 18.8707 90.7721 12.8655 89.9606 7.469C88.4999 10.1875 85.8625 16.2333 82.0484 25.6062C78.2343 34.979 76.3273 40.8625 76.3273 43.2564C76.3273 43.5404 76.3476 43.723 76.3881 43.8042H70.7888C73.1015 37.8802 76.4084 30.0694 80.7094 20.3719C85.0104 10.6744 87.6275 4.91276 88.5607 3.08687C84.8684 3.08687 81.2572 3.81722 77.7271 5.27793C74.2377 6.73864 72.1886 8.44281 71.58 10.3904C71.5394 10.5121 71.4582 10.573 71.3365 10.573C71.0119 10.573 70.8496 10.3093 70.8496 9.78179C70.8496 9.70064 71.0119 9.15287 71.3365 8.13849C71.6611 7.12411 72.2697 6.06915 73.1624 4.97362C74.0956 3.87809 75.1709 3.06658 76.3881 2.5391C78.3763 1.72759 80.8311 1.32184 83.7526 1.32184H91.4821C92.6994 1.32184 93.6529 1.52472 94.3427 1.93047C95.0731 2.33622 95.5803 3.31003 95.8643 4.85189C96.1483 6.35318 96.412 9.86294 96.6555 15.3812C96.9395 20.8588 97.0815 24.7135 97.0815 26.9451C97.0815 29.1768 97.041 30.6984 96.9598 31.5099C102.762 24.2469 110.269 15.1377 119.479 4.1824C121.102 2.27536 123.699 1.32184 127.27 1.32184Z" fill="white"/>
<path d="M13.7246 56.7859V62.7201C12.9807 63.2678 12.1861 63.6702 11.3408 63.9272C10.5022 64.1774 9.60282 64.3025 8.64254 64.3025C7.44557 64.3025 6.36018 64.1165 5.38637 63.7446C4.41933 63.3726 3.59091 62.8553 2.90113 62.1926C2.21812 61.5299 1.69064 60.7386 1.3187 59.8189C0.946757 58.8992 0.760787 57.895 0.760787 56.8062C0.760787 55.7039 0.939994 54.6929 1.29841 53.7732C1.65682 52.8535 2.16402 52.0623 2.81998 51.3996C3.48271 50.7368 4.28407 50.2229 5.22407 49.8577C6.16406 49.4925 7.21902 49.3099 8.38894 49.3099C8.98404 49.3099 9.53857 49.3573 10.0525 49.4519C10.5732 49.5466 11.0534 49.6785 11.493 49.8476C11.9393 50.0099 12.345 50.2093 12.7102 50.446C13.0754 50.6827 13.4101 50.9431 13.7144 51.2271L12.9334 52.4647C12.8116 52.6608 12.6527 52.7825 12.4566 52.8298C12.2605 52.8704 12.0475 52.8197 11.8176 52.6777C11.5944 52.5492 11.3712 52.4207 11.1481 52.2922C10.9249 52.1637 10.6747 52.0521 10.3974 51.9575C10.1269 51.8628 9.81922 51.785 9.47433 51.7242C9.1362 51.6633 8.74397 51.6329 8.29765 51.6329C7.57405 51.6329 6.91809 51.7546 6.32974 51.998C5.74817 52.2415 5.25112 52.5898 4.8386 53.0429C4.42609 53.4959 4.10825 54.0403 3.88508 54.676C3.66192 55.3117 3.55034 56.0218 3.55034 56.8062C3.55034 57.6448 3.66868 58.3954 3.90537 59.0581C4.14882 59.7141 4.48695 60.272 4.91975 60.7319C5.35932 61.185 5.8868 61.5332 6.50219 61.7767C7.11758 62.0134 7.80398 62.1317 8.56139 62.1317C9.10239 62.1317 9.58591 62.0742 10.012 61.9593C10.438 61.8443 10.8539 61.6888 11.2596 61.4927V58.835H9.41347C9.23764 58.835 9.09901 58.7876 8.99757 58.693C8.90289 58.5915 8.85556 58.4698 8.85556 58.3278V56.7859H13.7246ZM24.7666 53.7326V64.1402H23.2349C22.9035 64.1402 22.6939 63.988 22.606 63.6837L22.4335 62.8519C22.0075 63.2847 21.5375 63.6364 21.0235 63.9069C20.5096 64.1706 19.9043 64.3025 19.2078 64.3025C18.6397 64.3025 18.1359 64.2078 17.6964 64.0185C17.2636 63.8224 16.8984 63.5485 16.6008 63.1968C16.3033 62.8452 16.0767 62.4293 15.9212 61.9491C15.7724 61.4622 15.698 60.928 15.698 60.3464V53.7326H18.2036V60.3464C18.2036 60.9821 18.349 61.4758 18.6397 61.8274C18.9373 62.1723 19.3802 62.3447 19.9686 62.3447C20.4014 62.3447 20.8071 62.2501 21.1858 62.0607C21.5646 61.8646 21.923 61.5975 22.2611 61.2594V53.7326H24.7666ZM33.6009 55.7614C33.5333 55.8696 33.4623 55.9474 33.3879 55.9947C33.3135 56.0353 33.2189 56.0556 33.1039 56.0556C32.9822 56.0556 32.8503 56.0218 32.7083 55.9541C32.573 55.8865 32.4141 55.8121 32.2315 55.731C32.0489 55.6431 31.8393 55.5653 31.6026 55.4977C31.3727 55.43 31.0988 55.3962 30.781 55.3962C30.2873 55.3962 29.8984 55.501 29.6144 55.7107C29.3371 55.9203 29.1985 56.1942 29.1985 56.5323C29.1985 56.7555 29.2695 56.9448 29.4115 57.1004C29.5603 57.2492 29.753 57.381 29.9897 57.496C30.2332 57.611 30.5071 57.7158 30.8114 57.8105C31.1157 57.8984 31.4234 57.9964 31.7345 58.1046C32.0523 58.2128 32.3634 58.3379 32.6677 58.4799C32.972 58.6152 33.2425 58.791 33.4792 59.0074C33.7227 59.2171 33.9154 59.4707 34.0574 59.7682C34.2062 60.0658 34.2806 60.4242 34.2806 60.8435C34.2806 61.3439 34.1893 61.8071 34.0067 62.2332C33.8309 62.6524 33.5671 63.0176 33.2155 63.3287C32.8638 63.633 32.4276 63.8731 31.9069 64.0489C31.393 64.218 30.7979 64.3025 30.1216 64.3025C29.7632 64.3025 29.4115 64.2687 29.0666 64.2011C28.7285 64.1402 28.4005 64.0523 28.0827 63.9373C27.7716 63.8224 27.4808 63.6871 27.2103 63.5316C26.9466 63.376 26.7133 63.207 26.5104 63.0244L27.0886 62.0709C27.163 61.9559 27.2509 61.868 27.3523 61.8071C27.4538 61.7463 27.5823 61.7158 27.7378 61.7158C27.8933 61.7158 28.0387 61.7598 28.174 61.8477C28.316 61.9356 28.4783 62.0303 28.6609 62.1317C28.8435 62.2332 29.0565 62.3278 29.3 62.4157C29.5502 62.5037 29.8646 62.5476 30.2433 62.5476C30.5409 62.5476 30.7945 62.5138 31.0041 62.4462C31.2205 62.3718 31.3963 62.2771 31.5316 62.1622C31.6736 62.0472 31.775 61.9153 31.8359 61.7665C31.9035 61.611 31.9373 61.4521 31.9373 61.2898C31.9373 61.0463 31.863 60.8468 31.7142 60.6913C31.5722 60.5358 31.3794 60.4005 31.136 60.2855C30.8993 60.1706 30.6254 60.0691 30.3143 59.9812C30.01 59.8866 29.6956 59.7851 29.371 59.6769C29.0531 59.5687 28.7387 59.4436 28.4276 59.3016C28.1233 59.1528 27.8494 58.9668 27.6059 58.7437C27.3692 58.5205 27.1765 58.2466 27.0277 57.922C26.8857 57.5974 26.8147 57.2052 26.8147 56.7454C26.8147 56.3193 26.8992 55.9136 27.0683 55.5281C27.2374 55.1426 27.4842 54.8079 27.8088 54.5239C28.1402 54.2331 28.5493 54.0031 29.0362 53.8341C29.5299 53.6582 30.0979 53.5703 30.7404 53.5703C31.4572 53.5703 32.1098 53.6887 32.6981 53.9254C33.2865 54.1621 33.7768 54.4731 34.169 54.8586L33.6009 55.7614ZM39.6356 64.3025C38.7294 64.3025 38.0328 64.0489 37.5459 63.5417C37.0658 63.0278 36.8257 62.3211 36.8257 61.4217V55.6092H35.7606C35.6254 55.6092 35.5104 55.5653 35.4157 55.4774C35.3211 55.3895 35.2737 55.2576 35.2737 55.0818V54.0877L36.9474 53.8138L37.4749 50.9735C37.5087 50.8383 37.573 50.7334 37.6677 50.6591C37.7623 50.5847 37.8841 50.5475 38.0328 50.5475H39.3312V53.8239H42.1107V55.6092H39.3312V61.2492C39.3312 61.5738 39.409 61.8274 39.5646 62.01C39.7269 62.1926 39.9466 62.2839 40.2239 62.2839C40.3794 62.2839 40.5079 62.267 40.6094 62.2332C40.7176 62.1926 40.8089 62.152 40.8832 62.1114C40.9644 62.0709 41.0354 62.0337 41.0963 61.9999C41.1571 61.9593 41.218 61.939 41.2789 61.939C41.3532 61.939 41.4141 61.9593 41.4614 61.9999C41.5088 62.0337 41.5595 62.0878 41.6136 62.1622L42.3642 63.3794C41.9991 63.6837 41.5798 63.9137 41.1064 64.0692C40.633 64.2247 40.1428 64.3025 39.6356 64.3025ZM49.2128 59.6972C48.4892 59.731 47.8805 59.7953 47.3869 59.8899C46.8932 59.9778 46.4976 60.0928 46.2 60.2348C45.9025 60.3768 45.6895 60.5425 45.561 60.7319C45.4325 60.9212 45.3682 61.1275 45.3682 61.3506C45.3682 61.7902 45.4967 62.1047 45.7537 62.294C46.0174 62.4834 46.359 62.578 46.7782 62.578C47.2922 62.578 47.7351 62.4868 48.1071 62.3042C48.4858 62.1148 48.8543 61.8308 49.2128 61.4521V59.6972ZM43.4713 55.1832C44.6683 54.0877 46.1087 53.5399 47.7926 53.5399C48.4012 53.5399 48.9456 53.6413 49.4258 53.8442C49.9059 54.0403 50.3117 54.3176 50.643 54.676C50.9744 55.0277 51.2246 55.4503 51.3937 55.944C51.5695 56.4377 51.6574 56.9787 51.6574 57.567V64.1402H50.5213C50.2846 64.1402 50.102 64.1064 49.9735 64.0388C49.845 63.9644 49.7436 63.819 49.6692 63.6026L49.4461 62.8519C49.1823 63.0886 48.9253 63.2983 48.6751 63.4808C48.4249 63.6567 48.1646 63.8055 47.8941 63.9272C47.6236 64.0489 47.3328 64.1402 47.0217 64.2011C46.7174 64.2687 46.3792 64.3025 46.0073 64.3025C45.5677 64.3025 45.162 64.245 44.79 64.1301C44.4181 64.0083 44.0969 63.8291 43.8264 63.5924C43.5559 63.3557 43.3462 63.0616 43.1975 62.7099C43.0487 62.3583 42.9743 61.9491 42.9743 61.4825C42.9743 61.2188 43.0183 60.9584 43.1062 60.7014C43.1941 60.4377 43.3361 60.1875 43.5322 59.9508C43.7351 59.7141 43.9954 59.4909 44.3133 59.2813C44.6311 59.0717 45.02 58.8891 45.4798 58.7335C45.9464 58.578 46.4874 58.4529 47.1028 58.3582C47.7182 58.2568 48.4215 58.1959 49.2128 58.1756V57.567C49.2128 56.8705 49.064 56.3565 48.7664 56.0251C48.4689 55.687 48.0394 55.5179 47.4782 55.5179C47.0724 55.5179 46.7343 55.5653 46.4638 55.66C46.2 55.7546 45.9667 55.8628 45.7639 55.9846C45.561 56.0995 45.375 56.2043 45.2059 56.299C45.0436 56.3937 44.8611 56.441 44.6582 56.441C44.4823 56.441 44.3336 56.3971 44.2118 56.3092C44.0901 56.2145 43.9921 56.1063 43.9177 55.9846L43.4713 55.1832ZM63.1624 53.7326L59.0339 64.1402H56.7617L52.6331 53.7326H54.7025C54.8918 53.7326 55.0474 53.7766 55.1691 53.8645C55.2976 53.9524 55.3821 54.064 55.4227 54.1993L57.4312 59.7581C57.5394 60.0827 57.634 60.4005 57.7152 60.7116C57.7963 61.0227 57.8673 61.3337 57.9282 61.6448C57.9958 61.3337 58.0702 61.0227 58.1514 60.7116C58.2325 60.4005 58.3306 60.0827 58.4455 59.7581L60.4946 54.1993C60.5419 54.064 60.6265 53.9524 60.7482 53.8645C60.8699 53.7766 61.0153 53.7326 61.1844 53.7326H63.1624ZM68.786 53.5703C69.557 53.5703 70.2569 53.6954 70.8858 53.9457C71.5215 54.1959 72.0625 54.5509 72.5088 55.0108C72.9619 55.4706 73.3102 56.0319 73.5536 56.6946C73.7971 57.3574 73.9188 58.0979 73.9188 58.9161C73.9188 59.7412 73.7971 60.485 73.5536 61.1478C73.3102 61.8105 72.9619 62.3752 72.5088 62.8418C72.0625 63.3084 71.5215 63.6668 70.8858 63.917C70.2569 64.1672 69.557 64.2924 68.786 64.2924C68.0084 64.2924 67.3017 64.1672 66.666 63.917C66.0303 63.6668 65.4859 63.3084 65.0328 62.8418C64.5865 62.3752 64.2382 61.8105 63.988 61.1478C63.7446 60.485 63.6228 59.7412 63.6228 58.9161C63.6228 58.0979 63.7446 57.3574 63.988 56.6946C64.2382 56.0319 64.5865 55.4706 65.0328 55.0108C65.4859 54.5509 66.0303 54.1959 66.666 53.9457C67.3017 53.6954 68.0084 53.5703 68.786 53.5703ZM68.786 62.365C69.6517 62.365 70.2907 62.0742 70.7032 61.4927C71.1225 60.9111 71.3321 60.059 71.3321 58.9364C71.3321 57.8138 71.1225 56.9584 70.7032 56.37C70.2907 55.7817 69.6517 55.4875 68.786 55.4875C67.9069 55.4875 67.2543 55.7851 66.8283 56.3802C66.409 56.9685 66.1994 57.8206 66.1994 58.9364C66.1994 60.0522 66.409 60.9043 66.8283 61.4927C67.2543 62.0742 67.9069 62.365 68.786 62.365ZM97.0646 49.4722V64.1402H94.6606V54.6659C94.6606 54.2872 94.6808 53.878 94.7214 53.4385L90.2886 61.7665C90.0789 62.1655 89.7577 62.365 89.3249 62.365H88.9394C88.5066 62.365 88.1854 62.1655 87.9758 61.7665L83.4922 53.408C83.5125 53.6312 83.5294 53.851 83.5429 54.0674C83.5565 54.2838 83.5632 54.4833 83.5632 54.6659V64.1402H81.1591V49.4722H83.2183C83.3401 49.4722 83.4449 49.4756 83.5328 49.4824C83.6207 49.4891 83.6985 49.506 83.7661 49.5331C83.8405 49.5601 83.9047 49.6041 83.9588 49.665C84.0197 49.7258 84.0772 49.807 84.1313 49.9084L88.5235 58.0539C88.6385 58.2703 88.7433 58.4935 88.838 58.7234C88.9394 58.9533 89.0375 59.19 89.1322 59.4335C89.2269 59.1832 89.3249 58.9432 89.4263 58.7133C89.5278 58.4766 89.636 58.25 89.751 58.0336L94.0824 49.9084C94.1365 49.807 94.1939 49.7258 94.2548 49.665C94.3157 49.6041 94.3799 49.5601 94.4475 49.5331C94.5219 49.506 94.6031 49.4891 94.691 49.4824C94.7789 49.4756 94.8837 49.4722 95.0055 49.4722H97.0646ZM106.33 57.7394C106.33 57.4148 106.282 57.1105 106.188 56.8265C106.1 56.5357 105.965 56.2821 105.782 56.0657C105.599 55.8493 105.366 55.6802 105.082 55.5585C104.805 55.43 104.48 55.3658 104.108 55.3658C103.385 55.3658 102.813 55.572 102.394 55.9846C101.981 56.3971 101.718 56.982 101.603 57.7394H106.33ZM101.552 59.2509C101.593 59.7851 101.687 60.2484 101.836 60.6406C101.985 61.026 102.181 61.3473 102.424 61.6042C102.668 61.8545 102.955 62.0438 103.287 62.1723C103.625 62.294 103.997 62.3549 104.402 62.3549C104.808 62.3549 105.156 62.3075 105.447 62.2129C105.745 62.1182 106.002 62.0134 106.218 61.8984C106.441 61.7834 106.634 61.6786 106.796 61.584C106.965 61.4893 107.128 61.4419 107.283 61.4419C107.493 61.4419 107.648 61.5197 107.75 61.6752L108.47 62.5882C108.193 62.9128 107.882 63.1867 107.537 63.4098C107.192 63.6262 106.83 63.8021 106.451 63.9373C106.08 64.0658 105.697 64.1571 105.305 64.2112C104.92 64.2653 104.544 64.2924 104.179 64.2924C103.456 64.2924 102.783 64.174 102.161 63.9373C101.538 63.6939 100.997 63.3388 100.538 62.8722C100.078 62.3988 99.716 61.8173 99.4522 61.1275C99.1885 60.4309 99.0566 59.6262 99.0566 58.7133C99.0566 58.0032 99.1716 57.3371 99.4015 56.7149C99.6315 56.086 99.9594 55.5416 100.385 55.0818C100.818 54.6151 101.342 54.2466 101.958 53.9761C102.58 53.7056 103.28 53.5703 104.058 53.5703C104.714 53.5703 105.319 53.6752 105.873 53.8848C106.428 54.0944 106.905 54.4021 107.304 54.8079C107.703 55.2069 108.014 55.7005 108.237 56.2889C108.467 56.8705 108.582 57.5366 108.582 58.2872C108.582 58.6659 108.541 58.9229 108.46 59.0581C108.379 59.1866 108.223 59.2509 107.993 59.2509H101.552ZM116.812 55.7614C116.744 55.8696 116.673 55.9474 116.599 55.9947C116.525 56.0353 116.43 56.0556 116.315 56.0556C116.193 56.0556 116.061 56.0218 115.919 55.9541C115.784 55.8865 115.625 55.8121 115.443 55.731C115.26 55.6431 115.05 55.5653 114.814 55.4977C114.584 55.43 114.31 55.3962 113.992 55.3962C113.498 55.3962 113.109 55.501 112.825 55.7107C112.548 55.9203 112.41 56.1942 112.41 56.5323C112.41 56.7555 112.481 56.9448 112.623 57.1004C112.771 57.2492 112.964 57.381 113.201 57.496C113.444 57.611 113.718 57.7158 114.022 57.8105C114.327 57.8984 114.634 57.9964 114.946 58.1046C115.263 58.2128 115.574 58.3379 115.879 58.4799C116.183 58.6152 116.454 58.791 116.69 59.0074C116.934 59.2171 117.126 59.4707 117.268 59.7682C117.417 60.0658 117.492 60.4242 117.492 60.8435C117.492 61.3439 117.4 61.8071 117.218 62.2332C117.042 62.6524 116.778 63.0176 116.427 63.3287C116.075 63.633 115.639 63.8731 115.118 64.0489C114.604 64.218 114.009 64.3025 113.333 64.3025C112.974 64.3025 112.623 64.2687 112.278 64.2011C111.94 64.1402 111.612 64.0523 111.294 63.9373C110.983 63.8224 110.692 63.6871 110.421 63.5316C110.158 63.376 109.924 63.207 109.721 63.0244L110.3 62.0709C110.374 61.9559 110.462 61.868 110.563 61.8071C110.665 61.7463 110.793 61.7158 110.949 61.7158C111.104 61.7158 111.25 61.7598 111.385 61.8477C111.527 61.9356 111.689 62.0303 111.872 62.1317C112.055 62.2332 112.268 62.3278 112.511 62.4157C112.761 62.5037 113.076 62.5476 113.454 62.5476C113.752 62.5476 114.006 62.5138 114.215 62.4462C114.432 62.3718 114.607 62.2771 114.743 62.1622C114.885 62.0472 114.986 61.9153 115.047 61.7665C115.115 61.611 115.148 61.4521 115.148 61.2898C115.148 61.0463 115.074 60.8468 114.925 60.6913C114.783 60.5358 114.59 60.4005 114.347 60.2855C114.11 60.1706 113.836 60.0691 113.525 59.9812C113.221 59.8866 112.907 59.7851 112.582 59.6769C112.264 59.5687 111.95 59.4436 111.639 59.3016C111.334 59.1528 111.06 58.9668 110.817 58.7437C110.58 58.5205 110.388 58.2466 110.239 57.922C110.097 57.5974 110.026 57.2052 110.026 56.7454C110.026 56.3193 110.11 55.9136 110.279 55.5281C110.448 55.1426 110.695 54.8079 111.02 54.5239C111.351 54.2331 111.76 54.0031 112.247 53.8341C112.741 53.6582 113.309 53.5703 113.951 53.5703C114.668 53.5703 115.321 53.6887 115.909 53.9254C116.498 54.1621 116.988 54.4731 117.38 54.8586L116.812 55.7614ZM125.727 55.7614C125.66 55.8696 125.589 55.9474 125.514 55.9947C125.44 56.0353 125.345 56.0556 125.23 56.0556C125.109 56.0556 124.977 56.0218 124.835 55.9541C124.7 55.8865 124.541 55.8121 124.358 55.731C124.175 55.6431 123.966 55.5653 123.729 55.4977C123.499 55.43 123.225 55.3962 122.907 55.3962C122.414 55.3962 122.025 55.501 121.741 55.7107C121.464 55.9203 121.325 56.1942 121.325 56.5323C121.325 56.7555 121.396 56.9448 121.538 57.1004C121.687 57.2492 121.88 57.381 122.116 57.496C122.36 57.611 122.634 57.7158 122.938 57.8105C123.242 57.8984 123.55 57.9964 123.861 58.1046C124.179 58.2128 124.49 58.3379 124.794 58.4799C125.099 58.6152 125.369 58.791 125.606 59.0074C125.849 59.2171 126.042 59.4707 126.184 59.7682C126.333 60.0658 126.407 60.4242 126.407 60.8435C126.407 61.3439 126.316 61.8071 126.133 62.2332C125.957 62.6524 125.694 63.0176 125.342 63.3287C124.99 63.633 124.554 63.8731 124.033 64.0489C123.519 64.218 122.924 64.3025 122.248 64.3025C121.89 64.3025 121.538 64.2687 121.193 64.2011C120.855 64.1402 120.527 64.0523 120.209 63.9373C119.898 63.8224 119.607 63.6871 119.337 63.5316C119.073 63.376 118.84 63.207 118.637 63.0244L119.215 62.0709C119.289 61.9559 119.377 61.868 119.479 61.8071C119.58 61.7463 119.709 61.7158 119.864 61.7158C120.02 61.7158 120.165 61.7598 120.3 61.8477C120.443 61.9356 120.605 62.0303 120.787 62.1317C120.97 62.2332 121.183 62.3278 121.426 62.4157C121.677 62.5037 121.991 62.5476 122.37 62.5476C122.667 62.5476 122.921 62.5138 123.131 62.4462C123.347 62.3718 123.523 62.2771 123.658 62.1622C123.8 62.0472 123.902 61.9153 123.962 61.7665C124.03 61.611 124.064 61.4521 124.064 61.2898C124.064 61.0463 123.989 60.8468 123.841 60.6913C123.699 60.5358 123.506 60.4005 123.262 60.2855C123.026 60.1706 122.752 60.0691 122.441 59.9812C122.137 59.8866 121.822 59.7851 121.497 59.6769C121.18 59.5687 120.865 59.4436 120.554 59.3016C120.25 59.1528 119.976 58.9668 119.732 58.7437C119.496 58.5205 119.303 58.2466 119.154 57.922C119.012 57.5974 118.941 57.2052 118.941 56.7454C118.941 56.3193 119.026 55.9136 119.195 55.5281C119.364 55.1426 119.611 54.8079 119.935 54.5239C120.267 54.2331 120.676 54.0031 121.163 53.8341C121.656 53.6582 122.224 53.5703 122.867 53.5703C123.584 53.5703 124.236 53.6887 124.825 53.9254C125.413 54.1621 125.903 54.4731 126.295 54.8586L125.727 55.7614ZM130.89 53.7326V64.1402H128.374V53.7326H130.89ZM131.235 50.6996C131.235 50.916 131.191 51.1189 131.103 51.3083C131.015 51.4976 130.896 51.6633 130.748 51.8053C130.606 51.9473 130.437 52.0623 130.24 52.1502C130.044 52.2314 129.835 52.2719 129.612 52.2719C129.395 52.2719 129.189 52.2314 128.993 52.1502C128.803 52.0623 128.638 51.9473 128.496 51.8053C128.354 51.6633 128.239 51.4976 128.151 51.3083C128.07 51.1189 128.029 50.916 128.029 50.6996C128.029 50.4765 128.07 50.2668 128.151 50.0707C128.239 49.8746 128.354 49.7055 128.496 49.5635C128.638 49.4215 128.803 49.3099 128.993 49.2288C129.189 49.1409 129.395 49.0969 129.612 49.0969C129.835 49.0969 130.044 49.1409 130.24 49.2288C130.437 49.3099 130.606 49.4215 130.748 49.5635C130.896 49.7055 131.015 49.8746 131.103 50.0707C131.191 50.2668 131.235 50.4765 131.235 50.6996ZM138.942 59.6972C138.218 59.731 137.61 59.7953 137.116 59.8899C136.622 59.9778 136.227 60.0928 135.929 60.2348C135.632 60.3768 135.419 60.5425 135.29 60.7319C135.162 60.9212 135.097 61.1275 135.097 61.3506C135.097 61.7902 135.226 62.1047 135.483 62.294C135.747 62.4834 136.088 62.578 136.507 62.578C137.021 62.578 137.464 62.4868 137.836 62.3042C138.215 62.1148 138.584 61.8308 138.942 61.4521V59.6972ZM133.201 55.1832C134.398 54.0877 135.838 53.5399 137.522 53.5399C138.13 53.5399 138.675 53.6413 139.155 53.8442C139.635 54.0403 140.041 54.3176 140.372 54.676C140.704 55.0277 140.954 55.4503 141.123 55.944C141.299 56.4377 141.387 56.9787 141.387 57.567V64.1402H140.251C140.014 64.1402 139.831 64.1064 139.703 64.0388C139.574 63.9644 139.473 63.819 139.398 63.6026L139.175 62.8519C138.912 63.0886 138.655 63.2983 138.404 63.4808C138.154 63.6567 137.894 63.8055 137.623 63.9272C137.353 64.0489 137.062 64.1402 136.751 64.2011C136.447 64.2687 136.108 64.3025 135.737 64.3025C135.297 64.3025 134.891 64.245 134.519 64.1301C134.147 64.0083 133.826 63.8291 133.556 63.5924C133.285 63.3557 133.075 63.0616 132.927 62.7099C132.778 62.3583 132.704 61.9491 132.704 61.4825C132.704 61.2188 132.747 60.9584 132.835 60.7014C132.923 60.4377 133.065 60.1875 133.261 59.9508C133.464 59.7141 133.725 59.4909 134.043 59.2813C134.36 59.0717 134.749 58.8891 135.209 58.7335C135.676 58.578 136.217 58.4529 136.832 58.3582C137.447 58.2568 138.151 58.1959 138.942 58.1756V57.567C138.942 56.8705 138.793 56.3565 138.496 56.0251C138.198 55.687 137.769 55.5179 137.207 55.5179C136.802 55.5179 136.464 55.5653 136.193 55.66C135.929 55.7546 135.696 55.8628 135.493 55.9846C135.29 56.0995 135.104 56.2043 134.935 56.299C134.773 56.3937 134.59 56.441 134.387 56.441C134.212 56.441 134.063 56.3971 133.941 56.3092C133.819 56.2145 133.721 56.1063 133.647 55.9846L133.201 55.1832ZM150.096 55.7614C150.029 55.8696 149.958 55.9474 149.883 55.9947C149.809 56.0353 149.714 56.0556 149.599 56.0556C149.478 56.0556 149.346 56.0218 149.204 55.9541C149.068 55.8865 148.91 55.8121 148.727 55.731C148.544 55.6431 148.335 55.5653 148.098 55.4977C147.868 55.43 147.594 55.3962 147.276 55.3962C146.783 55.3962 146.394 55.501 146.11 55.7107C145.833 55.9203 145.694 56.1942 145.694 56.5323C145.694 56.7555 145.765 56.9448 145.907 57.1004C146.056 57.2492 146.248 57.381 146.485 57.496C146.729 57.611 147.003 57.7158 147.307 57.8105C147.611 57.8984 147.919 57.9964 148.23 58.1046C148.548 58.2128 148.859 58.3379 149.163 58.4799C149.467 58.6152 149.738 58.791 149.975 59.0074C150.218 59.2171 150.411 59.4707 150.553 59.7682C150.702 60.0658 150.776 60.4242 150.776 60.8435C150.776 61.3439 150.685 61.8071 150.502 62.2332C150.326 62.6524 150.063 63.0176 149.711 63.3287C149.359 63.633 148.923 63.8731 148.402 64.0489C147.888 64.218 147.293 64.3025 146.617 64.3025C146.259 64.3025 145.907 64.2687 145.562 64.2011C145.224 64.1402 144.896 64.0523 144.578 63.9373C144.267 63.8224 143.976 63.6871 143.706 63.5316C143.442 63.376 143.209 63.207 143.006 63.0244L143.584 62.0709C143.658 61.9559 143.746 61.868 143.848 61.8071C143.949 61.7463 144.078 61.7158 144.233 61.7158C144.389 61.7158 144.534 61.7598 144.669 61.8477C144.811 61.9356 144.974 62.0303 145.156 62.1317C145.339 62.2332 145.552 62.3278 145.795 62.4157C146.046 62.5037 146.36 62.5476 146.739 62.5476C147.036 62.5476 147.29 62.5138 147.5 62.4462C147.716 62.3718 147.892 62.2771 148.027 62.1622C148.169 62.0472 148.27 61.9153 148.331 61.7665C148.399 61.611 148.433 61.4521 148.433 61.2898C148.433 61.0463 148.358 60.8468 148.21 60.6913C148.068 60.5358 147.875 60.4005 147.631 60.2855C147.395 60.1706 147.121 60.0691 146.81 59.9812C146.505 59.8866 146.191 59.7851 145.866 59.6769C145.549 59.5687 145.234 59.4436 144.923 59.3016C144.619 59.1528 144.345 58.9668 144.101 58.7437C143.865 58.5205 143.672 58.2466 143.523 57.922C143.381 57.5974 143.31 57.2052 143.31 56.7454C143.31 56.3193 143.395 55.9136 143.564 55.5281C143.733 55.1426 143.98 54.8079 144.304 54.5239C144.636 54.2331 145.045 54.0031 145.532 53.8341C146.025 53.6582 146.593 53.5703 147.236 53.5703C147.953 53.5703 148.605 53.6887 149.194 53.9254C149.782 54.1621 150.272 54.4731 150.664 54.8586L150.096 55.7614Z" fill="white"/>
</svg>
