<svg width="683" height="552" viewBox="0 0 683 552" fill="none" xmlns="http://www.w3.org/2000/svg">
<circle cx="344" cy="276" r="276" fill="#000"/>
<g filter="url(#filter0_d)">
<path d="M321.956 277.024C320.682 283.579 318.496 288.405 315.401 291.5C312.305 294.596 308.117 296.599 302.836 297.51C284.263 347.767 247.935 372.896 193.853 372.896C169.999 372.896 151.607 367.343 138.679 356.235C125.932 344.945 119.559 329.194 119.559 308.981C119.559 293.686 123.11 277.843 130.211 261.455C137.313 244.884 146.691 229.771 158.345 216.114C170.181 202.456 184.657 191.258 201.774 182.517C218.891 173.595 235.644 169.133 252.032 169.133C268.421 169.133 281.076 172.047 289.999 177.874C298.921 183.519 303.383 191.076 303.383 200.544C303.383 209.831 298.921 218.299 289.999 225.947C281.076 233.412 271.152 237.145 260.226 237.145C256.22 237.145 252.943 236.326 250.393 234.687C247.844 232.866 246.569 230.59 246.569 227.859C246.569 225.127 247.662 222.214 249.847 219.118C251.85 219.846 254.126 220.211 256.676 220.211C263.777 220.211 270.333 217.752 276.342 212.836C282.351 207.919 285.355 202.001 285.355 195.082C285.355 184.52 278.436 179.239 264.597 179.239C250.94 179.239 237.283 183.428 223.625 191.804C209.968 199.998 198.041 210.56 187.844 223.488C177.647 236.235 169.27 250.802 162.715 267.191C156.342 283.579 153.155 299.604 153.155 315.264C153.155 330.924 157.161 342.487 165.173 349.953C173.185 357.418 183.838 361.151 197.131 361.151C216.251 361.151 234.278 355.324 251.213 343.67C268.147 331.834 278.072 316.72 280.985 298.329C248.39 298.329 228.815 298.784 222.26 299.695C223.17 298.056 224.263 295.962 225.537 293.412C226.994 290.863 229.452 287.494 232.912 283.306C236.554 279.118 239.559 277.024 241.926 277.024H321.956ZM571.671 171.865H588.606C580.412 178.238 568.029 197.904 551.459 230.863C526.876 280.393 514.585 315.992 514.585 337.661C514.585 347.676 517.771 352.684 524.145 352.684C527.058 352.684 530.609 351.5 534.797 349.133H535.07C535.616 349.133 535.89 349.588 535.89 350.499C535.89 353.959 531.246 357.236 521.959 360.332C512.855 363.428 505.389 364.975 499.562 364.975C487.362 364.975 481.261 358.329 481.261 345.036C481.261 321.91 499.835 275.203 536.982 204.915C529.698 211.834 524.782 216.751 522.233 219.664C504.752 239.148 478.712 271.379 444.114 316.356C436.83 325.643 431.823 331.47 429.091 333.837C426.36 336.204 422.718 337.388 418.166 337.388C413.796 337.388 408.697 336.022 402.87 333.291C407.422 327.464 409.698 309.801 409.698 280.302C409.698 250.62 407.878 223.67 404.236 199.452C397.68 211.652 385.844 238.784 368.727 280.848C351.61 322.912 343.052 349.315 343.052 360.059C343.052 361.333 343.143 362.153 343.325 362.517H318.196C328.576 335.931 343.416 300.878 362.718 257.358C382.02 213.837 393.765 187.98 397.953 179.786C381.383 179.786 365.176 183.063 349.334 189.619C333.674 196.174 324.478 203.822 321.747 212.563C321.565 213.109 321.201 213.382 320.655 213.382C319.198 213.382 318.469 212.198 318.469 209.831C318.469 209.467 319.198 207.009 320.655 202.456C322.111 197.904 324.843 193.17 328.849 188.253C333.037 183.337 337.862 179.695 343.325 177.327C352.248 173.686 363.265 171.865 376.375 171.865H411.064C416.527 171.865 420.806 172.775 423.902 174.596C427.179 176.417 429.456 180.787 430.73 187.707C432.005 194.444 433.189 210.195 434.281 234.96C435.556 259.543 436.193 276.842 436.193 286.857C436.193 296.872 436.011 303.701 435.647 307.343C461.686 274.748 495.374 233.868 536.709 184.702C543.993 176.144 555.647 171.865 571.671 171.865Z" fill="#fff"/>
</g>
<defs>
<filter id="filter0_d" x="-17.2683" y="157.073" width="718.049" height="278.244" filterUnits="userSpaceOnUse" color-interpolation-filters="sRGB">
<feFlood flood-opacity="0" result="BackgroundImageFix"/>
<feColorMatrix in="SourceAlpha" type="matrix" values="0 0 0 0 0 0 0 0 0 0 0 0 0 0 0 0 0 0 127 0"/>
<feOffset dy="17.9512"/>
<feGaussianBlur stdDeviation="8.97561"/>
<feColorMatrix type="matrix" values="0 0 0 0 0 0 0 0 0 0 0 0 0 0 0 0 0 0 0.25 0"/>
<feBlend mode="normal" in2="BackgroundImageFix" result="effect1_dropShadow"/>
<feBlend mode="normal" in="SourceGraphic" in2="effect1_dropShadow" result="shape"/>
</filter>
</defs>
</svg>
